PathFileType	4	(X/Y/Z)	Walk2.trc
DataRate	CameraRate	NumFrames	NumMarkers	Units	OrigDataRate	OrigDataStartFrame	OrigNumFrames
200.000000	200.000000	8	59	mm	200.000000	316	381
Frame#	Times		LFHD		RFHD		LBHD		RBHD		C7		T10		CLAV		STRN		RBack		LASI		RASI		LPSI		RPSI		RACR1		RUA1		RElbow		RElbowM		RFA1		RWRR		RWRU		RCAR		LACR1		LUA1		LElbow		LElbowM		LFA1		LWRR		LWRU		LCAR		RTH1		RTH3		RTH2		RTH4		RLFC		RTB1		RTB3		RTB2		RTB4		RLMAL		RMMAL		RCAL		RMT1		RMT5		RToe		LTH1		LTH3		LTH2		LTH4		LLFC		LTB1		LTB3		LTB2		LTB4		LLMAL		LCAL		LMT5		LToe		LMMAL		LMT1
			X1	Y1	Z1	X2	Y2	Z2	X3	Y3	Z3	X4	Y4	Z4	X5	Y5	Z5	X6	Y6	Z6	X7	Y7	Z7	X8	Y8	Z8	X9	Y9	Z9	X10	Y10	Z10	X11	Y11	Z11	X12	Y12	Z12	X13	Y13	Z13	X14	Y14	Z14	X15	Y15	Z15	X16	Y16	Z16	X17	Y17	Z17	X18	Y18	Z18	X19	Y19	Z19	X20	Y20	Z20	X21	Y21	Z21	X22	Y22	Z22	X23	Y23	Z23	X24	Y24	Z24	X25	Y25	Z25	X26	Y26	Z26	X27	Y27	Z27	X28	Y28	Z28	X29	Y29	Z29	X30	Y30	Z30	X31	Y31	Z31	X32	Y32	Z32	X33	Y33	Z33	X34	Y34	Z34	X35	Y35	Z35	X36	Y36	Z36	X37	Y37	Z37	X38	Y38	Z38	X39	Y39	Z39	X40	Y40	Z40	X41	Y41	Z41	X42	Y42	Z42	X43	Y43	Z43	X44	Y44	Z44	X45	Y45	Z45	X46	Y46	Z46	X47	Y47	Z47	X48	Y48	Z48	X49	Y49	Z49	X50	Y50	Z50	X51	Y51	Z51	X52	Y52	Z52	X53	Y53	Z53	X54	Y54	Z54	X55	Y55	Z55	X56	Y56	Z56	X57	Y57	Z57	X58	Y58	Z58	X59	Y59	Z59

316	1.58	556.11	1429.9	-73.414	545.53	1421.5	22.607	436.3	1342.2	-105	421.78	1338.5	27.752	398.25	1255.4	-38.24	316.9	1057.9	-9.5212	539.84	1175.4	-30.998	595.4	1069.8	-23.075	349.24	1142.5	90.108	529.13	800.23	-159.88	540.06	817.03	152.47	269.77	831.61	-45.314	279.73	831.76	61.48	465.64	1213.5	146.02	482.52	1080.2	237.99	487.09	960.05	286.2	437.21	914.19	221.24	566.26	854.4	294.36	602.77	760.33	263.21	567.57	754.95	326.48	625.97	712.48	319.46	462.93	1185.2	-220.47	476.31	1015.5	-277.8	442.54	899.11	-281.9	423.89	881.35	-212.27	492.4	805.79	-319.72	528.28	696.06	-306.2	474.19	695.13	-339.19	510.91	646.2	-349.68	467.39	626.65	212.05	446.79	458.85	174.43	510.58	542.3	172.39	455.16	542.91	195.79	402.52	377.41	158.62	383.59	265.02	107.07	256.17	153.74	75.587	287.58	232.71	140.24	316.74	210.39	91.342	174.92	138.27	105.5	195.1	140.84	25.036	121.16	161.58	57.21	229.92	40.787	33.206	204.45	47.557	119.61	271.88	27.954	69.819	484.51	648.02	-213.6	524.77	485.05	-165.56	553.42	588.52	-166.32	504.28	566.54	-192.88	566.72	403.49	-129.45	603.91	309.07	-65.034	615.99	138.95	-57.722	586.59	218.93	-119.36	606.62	221.53	-60.54	573.49	58.198	-90.602	533.15	41.813	-45.448	657.27	19.165	-114.07	749.68	35.855	-60.637	595.78	75.387	-13.446	702.08	38.576	-34.22
317	1.585	561.62	1430.6	-74.356	550.92	1422.3	21.641	441.75	1343	-106.01	427.06	1339.5	26.727	403.55	1256.2	-39.288	322.17	1058.8	-10.312	545.13	1176.3	-31.882	600.58	1070.6	-24.376	354.45	1143.6	89.253	534.93	801.68	-160.52	545.48	817.81	151.45	274.93	832.56	-45.394	285.38	832.03	61.531	470.92	1214.6	144.97	487.49	1081.3	236.97	491.44	960.91	284.97	441.84	915.3	219.53	570.27	854.99	293.24	606.52	760.73	262.13	571.17	755.48	325.34	629.32	712.58	318.32	468.84	1186.2	-221.33	482.88	1016.4	-278.46	449.05	899.93	-282.64	430.06	882.2	-213.05	499.27	806.65	-320.11	535.43	697.04	-306.29	481.48	695.91	-339.46	518.32	646.97	-349.68	474.43	627.34	211.86	456.62	459.06	175.09	519.01	543.6	172.6	463.56	543.33	195.95	412.83	377.55	159.47	392.71	265.55	108.44	263.52	156.36	76.564	295.76	235.26	140.87	325	212.1	92.467	181.57	142.49	105.61	202.69	144.36	25.478	129.01	167.25	56.748	234.09	42.606	34.253	208.08	50.499	119.99	274.44	28.185	71.305	489.84	648.94	-214.28	529.38	485.79	-166.24	558.49	589.14	-166.93	509.28	567.37	-193.54	570.84	403.77	-129.99	606.88	308.86	-65.392	617.02	138.59	-57.743	588.73	218.82	-119.64	608.59	221.28	-60.757	573.71	58.234	-90.63	533.14	41.926	-45.617	657.27	19.222	-114.2	749.8	35.05	-60.308	595.96	75.329	-13.411	702.09	37.944	-34.007
318	1.59	567.11	1431.3	-75.273	556.31	1423.2	20.701	447.18	1343.8	-106.98	432.31	1340.5	25.738	408.8	1257	-40.289	327.42	1059.6	-11.07	550.38	1177.1	-32.724	605.72	1071.5	-25.626	359.62	1144.8	88.425	540.63	803.13	-161.19	550.87	818.6	150.48	280.07	833.54	-45.485	291	832.37	61.544	476.13	1215.8	143.95	492.47	1082.3	236	495.76	961.79	283.79	446.44	916.45	217.88	574.26	855.62	292.14	610.24	761.17	261.03	574.78	756.04	324.21	632.65	712.67	317.13	474.69	1187.1	-222.13	489.48	1017.4	-279.08	455.56	900.79	-283.39	436.23	883.07	-213.84	506.18	807.56	-320.49	542.62	698.08	-306.39	488.82	696.75	-339.75	525.78	647.79	-349.69	481.38	628.1	211.66	466.4	459.39	175.69	527.39	544.98	172.84	471.89	543.85	196.09	423.15	377.79	160.26	401.97	266.19	109.74	271.14	158.97	77.538	304.16	237.83	141.47	333.47	213.86	93.551	188.54	146.64	105.73	210.6	147.73	25.904	137.15	172.58	56.242	238.92	44.526	35.496	212.27	53.58	120.52	277.68	28.518	73.08	495.06	649.8	-214.92	533.78	486.45	-166.89	563.42	589.65	-167.56	514.11	568.13	-194.18	574.75	403.99	-130.52	609.7	308.63	-65.762	617.99	138.25	-57.79	590.71	218.7	-119.92	610.45	221.03	-60.986	573.89	58.276	-90.653	533.1	42.02	-45.774	657.25	19.32	-114.31	749.86	34.419	-60.031	596.11	75.286	-13.38	702.06	37.433	-33.816
319	1.595	572.6	1432	-76.163	561.69	1424	19.791	452.57	1344.7	-107.92	437.54	1341.5	24.788	414	1257.8	-41.242	332.66	1060.5	-11.795	555.6	1178.1	-33.523	610.83	1072.3	-26.819	364.76	1145.9	87.623	546.22	804.58	-161.88	556.25	819.39	149.56	285.2	834.55	-45.588	296.57	832.78	61.515	481.28	1216.9	142.98	497.44	1083.4	235.1	500.06	962.7	282.68	450.99	917.62	216.3	578.24	856.26	291.08	613.93	761.62	259.93	578.4	756.63	323.11	635.96	712.73	315.9	480.48	1188.1	-222.89	496.09	1018.4	-279.66	462.09	901.69	-284.14	442.37	883.96	-214.64	513.12	808.52	-320.88	549.84	699.17	-306.5	496.21	697.63	-340.08	533.3	648.66	-349.73	488.24	628.93	211.46	476.09	459.83	176.24	535.68	546.45	173.11	480.14	544.45	196.2	433.46	378.15	160.96	411.35	266.95	110.94	279.04	161.54	78.496	312.75	240.41	142.02	342.15	215.65	94.578	195.84	150.65	105.83	218.81	150.91	26.31	145.56	177.54	55.689	244.45	46.512	36.94	217.07	56.767	121.21	281.67	28.969	75.142	500.16	650.6	-215.53	537.98	487.04	-167.51	568.21	590.06	-168.18	518.78	568.82	-194.79	578.46	404.14	-131.03	612.39	308.39	-66.154	618.89	137.92	-57.871	592.52	218.57	-120.2	612.2	220.78	-61.235	574.02	58.323	-90.67	533.06	42.1	-45.92	657.21	19.444	-114.41	749.88	33.933	-59.804	596.26	75.257	-13.357	702.01	37.025	-33.646
320	1.6	578.06	1432.7	-77.022	567.05	1424.8	18.912	457.94	1345.5	-108.82	442.76	1342.6	23.879	419.14	1258.7	-42.147	337.87	1061.3	-12.49	560.78	1179	-34.278	615.91	1073.2	-27.947	369.87	1146.9	86.843	551.68	806.01	-162.6	561.6	820.17	148.72	290.3	835.57	-45.706	302.09	833.24	61.44	486.36	1218	142.05	502.41	1084.4	234.26	504.35	963.6	281.63	455.51	918.81	214.82	582.21	856.92	290.06	617.6	762.08	258.83	582.04	757.23	322.04	639.27	712.79	314.63	486.19	1189.1	-223.6	502.73	1019.4	-280.2	468.62	902.61	-284.89	448.5	884.85	-215.46	520.1	809.52	-321.27	557.08	700.29	-306.64	503.63	698.56	-340.44	540.85	649.57	-349.8	494.98	629.82	211.26	485.68	460.39	176.73	543.88	547.99	173.38	488.27	545.14	196.28	443.72	378.63	161.59	420.83	267.82	112.05	287.2	164.04	79.424	321.53	242.96	142.52	351.02	217.45	95.54	203.45	154.51	105.93	227.32	153.86	26.693	154.21	182.05	55.087	250.68	48.525	38.579	222.5	60.021	122.07	286.46	29.553	77.474	505.12	651.34	-216.1	541.99	487.55	-168.09	572.87	590.36	-168.82	523.28	569.44	-195.37	581.97	404.23	-131.53	614.98	308.13	-66.575	619.73	137.61	-57.991	594.19	218.43	-120.49	613.88	220.52	-61.509	574.11	58.374	-90.683	533.02	42.17	-46.055	657.17	19.58	-114.51	749.89	33.563	-59.624	596.41	75.24	-13.342	701.94	36.702	-33.497
321	1.605	583.51	1433.4	-77.851	572.4	1425.6	18.066	463.27	1346.4	-109.68	447.95	1343.6	23.01	424.24	1259.5	-43.004	343.07	1062.2	-13.156	565.93	1179.9	-34.99	620.97	1074.1	-29.006	374.95	1148	86.085	557.02	807.39	-163.33	566.93	820.96	147.94	295.4	836.6	-45.84	307.55	833.76	61.319	491.37	1219.2	141.18	507.35	1085.5	233.49	508.62	964.5	280.66	459.98	920.01	213.43	586.18	857.59	289.09	621.24	762.56	257.73	585.7	757.84	321	642.57	712.82	313.33	491.83	1190.1	-224.27	509.37	1020.4	-280.7	475.17	903.53	-285.64	454.61	885.72	-216.28	527.11	810.55	-321.66	564.36	701.45	-306.79	511.1	699.51	-340.83	548.45	650.51	-349.9	501.6	630.78	211.05	495.12	461.06	177.16	551.94	549.61	173.67	496.27	545.93	196.33	453.89	379.25	162.12	430.38	268.8	113.05	295.62	166.45	80.314	330.49	245.45	142.97	360.06	219.25	96.428	211.38	158.16	106.02	236.11	156.54	27.054	163.08	186.08	54.437	257.63	50.521	40.398	228.57	63.295	123.09	292.06	30.277	80.044	509.97	652.02	-216.62	545.81	488	-168.64	577.39	590.58	-169.45	527.63	570	-195.92	585.3	404.26	-132.03	617.47	307.86	-67.026	620.54	137.3	-58.152	595.72	218.27	-120.77	615.49	220.27	-61.811	574.18	58.425	-90.692	532.98	42.234	-46.181	657.12	19.719	-114.6	749.88	33.284	-59.485	596.57	75.235	-13.336	701.87	36.453	-33.369
322	1.61	588.93	1434.1	-78.646	577.72	1426.5	17.256	468.57	1347.3	-110.51	453.12	1344.7	22.183	429.31	1260.3	-43.815	348.26	1063	-13.797	571.06	1180.8	-35.657	626.01	1075	-29.99	379.99	1148.9	85.346	562.22	808.73	-164.09	572.24	821.75	147.22	300.48	837.64	-45.993	312.94	834.33	61.15	496.32	1220.2	140.35	512.27	1086.6	232.79	512.88	965.4	279.75	464.41	921.19	212.16	590.15	858.25	288.16	624.87	763.04	256.65	589.39	758.46	320	645.88	712.85	312.01	497.39	1191	-224.9	516.02	1021.5	-281.16	481.71	904.46	-286.4	460.72	886.58	-217.12	534.14	811.59	-322.06	571.67	702.63	-306.97	518.6	700.48	-341.25	556.09	651.48	-350.03	508.09	631.79	210.85	504.39	461.84	177.52	559.87	551.28	173.95	504.14	546.79	196.35	463.96	380.01	162.55	440.02	269.87	113.94	304.31	168.73	81.159	339.61	247.86	143.37	369.27	221.04	97.239	219.62	161.57	106.1	245.17	158.94	27.393	172.17	189.6	53.748	265.3	52.46	42.369	235.31	66.537	124.26	298.51	31.138	82.805	514.68	652.63	-217.1	549.47	488.38	-169.15	581.78	590.71	-170.08	531.84	570.49	-196.44	588.47	404.25	-132.51	619.88	307.57	-67.505	621.31	137	-58.352	597.13	218.11	-121.06	617.03	220.01	-62.138	574.22	58.477	-90.698	532.94	42.295	-46.298	657.07	19.854	-114.69	749.87	33.074	-59.383	596.73	75.24	-13.339	701.79	36.265	-33.261
323	1.615	594.33	1434.8	-79.408	583.02	1427.3	16.484	473.84	1348.2	-111.3	458.27	1345.8	21.397	434.35	1261.1	-44.581	353.42	1063.8	-14.415	576.16	1181.8	-36.283	631.03	1076	-30.897	385.01	1149.9	84.625	567.29	810	-164.85	577.52	822.53	146.58	305.54	838.66	-46.168	318.26	834.95	60.933	501.21	1221.3	139.58	517.15	1087.6	232.16	517.13	966.27	278.92	468.8	922.37	211.01	594.12	858.92	287.29	628.49	763.53	255.58	593.1	759.09	319.03	649.2	712.86	310.67	502.88	1192	-225.49	522.65	1022.5	-281.58	488.25	905.37	-287.15	466.81	887.41	-217.98	541.19	812.64	-322.46	579.01	703.82	-307.18	526.13	701.46	-341.69	563.77	652.47	-350.2	514.44	632.85	210.64	513.48	462.72	177.83	567.64	553	174.22	511.84	547.72	196.34	473.91	380.9	162.89	449.72	271.04	114.73	313.25	170.88	81.956	348.88	250.18	143.71	378.64	222.78	97.975	228.17	164.7	106.17	254.5	161.03	27.715	181.44	192.58	53.03	273.65	54.302	44.454	242.71	69.691	125.57	305.79	32.123	85.7	519.27	653.19	-217.54	552.98	488.7	-169.63	586.05	590.76	-170.71	535.91	570.92	-196.94	591.49	404.2	-132.97	622.22	307.28	-68.004	622.05	136.7	-58.587	598.44	217.95	-121.35	618.53	219.75	-62.486	574.25	58.528	-90.703	532.91	42.356	-46.404	657.03	19.98	-114.79	749.86	32.913	-59.31	596.91	75.255	-13.351	701.72	36.128	-33.171
